<?xml version="1.0" encoding="UTF-8"?>
<svg width="977px" height="235px" viewBox="0 0 977 235" version="1.1" xmlns="http://www.w3.org/2000/svg" xmlns:xlink="http://www.w3.org/1999/xlink">
    <!-- Generator: Sketch 55.2 (78181) - https://sketchapp.com -->
    <title>QMetry Test Management for JIRA Logo</title>
    <desc>Created with Sketch.</desc>
    <g id="QMetry-Test-Management-For-JIRA" stroke="none" stroke-width="1" fill="none" fill-rule="evenodd">
        <g id="QMetry-Test-Management-for-JIRA-Logo-1024" transform="translate(-23.000000, -394.000000)">
            <g id="QMetry-Test-Management-for-JIRA-Logo" transform="translate(23.000000, 394.000000)">
                <g id="Group-2">
                    <path d="M3.12638804e-12,77.0115619 C3.12638804e-12,65.0393969 8.09715711,50.3368454 18.4490798,44.3495412 L87.1761397,4.48956186 C97.5280623,-1.49652062 114.376002,-1.49652062 124.735242,4.48956186 L194.146414,44.3495412 C204.497117,50.3356237 213.467401,65.0381753 213.467401,77.0115619 L213.467401,156.726634 C213.467401,168.706129 204.449559,183.401351 194.098855,189.388655 L124.912062,229.247412 C114.56014,235.233495 97.4817232,235.233495 87.1298005,229.247412 L18.5210274,189.388655 C8.17032419,183.402572 0.00487780549,168.706129 0.00487780549,156.726634 L3.12638804e-12,77.0115619 Z" id="Path" fill="#0EDE00"></path>
                    <path d="M155.220307,173.557299 C143.615195,159.173598 132.004392,144.793155 120.387898,130.415969 C119.785027,129.775669 119.573843,128.859357 119.835486,128.019093 C121.111688,123.086056 119.287861,117.869302 115.218158,114.811988 C111.148455,111.754674 105.638668,111.462143 101.269191,114.071394 C96.8997139,116.680646 94.5356944,121.675055 95.2842718,126.715593 C95.8039427,130.092861 97.6615769,133.117317 100.436656,135.104305 C103.211735,137.091293 106.669584,137.872782 110.027439,137.271866 C110.809676,137.18805 111.593974,137.410413 112.216354,137.892464 C123.08817,147.286948 133.932344,156.712789 144.748878,166.169985 C149.343771,170.168036 153.941509,174.164866 158.542092,178.160474 L158.79208,177.974784 C157.601082,176.503103 156.410491,175.030608 155.220307,173.557299 Z" id="Path" fill="#FFFFFF"></path>
                    <path d="M165.685638,98.2645979 C167.793215,101.949717 169.498882,105.851316 170.77319,109.902031 L177.602117,108.740242 C177.032346,103.790297 175.952663,98.9127295 174.380327,94.1855103 L165.685638,98.2645979 Z" id="Path" fill="#FFFFFF"></path>
                    <path d="M173.514516,127.819964 C173.514516,128.72032 173.454763,129.606015 173.415741,130.492933 L176.899713,130.312129 C177.696579,125.970194 178.098613,121.564789 178.100873,117.150077 C178.100873,116.329129 178.066728,115.516732 178.0399,114.706778 L172.290187,115.732964 C173.106123,119.709987 173.516341,123.759809 173.514516,127.819964 L173.514516,127.819964 Z" id="Path" fill="#FFFFFF"></path>
                    <path d="M53.1314963,127.819964 C53.2786001,104.860194 66.4179736,83.9729713 87.0296725,73.9331674 C107.641371,63.8933635 132.154358,66.4404035 150.270554,80.5042577 L161.716324,71.1623041 C138.237056,42.4052233 96.882622,36.0304586 65.8598749,56.3860819 C34.8371278,76.7417051 24.1453735,117.266656 41.0771971,150.319853 C58.0090207,183.37305 97.1069272,198.300728 131.703187,184.921082 C113.449315,190.756936 93.5129883,187.547371 78.0033361,176.275901 C62.493684,165.004431 53.2598943,147.014932 53.1314963,127.819964 L53.1314963,127.819964 Z" id="Path" fill="#FFFFFF"></path>
                    <path d="M172.876743,136.515665 C171.622753,145.080591 168.515902,153.26761 163.773539,160.503974 C169.159461,153.260648 173.144541,145.071431 175.522953,136.359294 L172.876743,136.515665 Z" id="Path" fill="#FFFFFF"></path>
                    <path d="M172.281651,88.6025722 C170.375543,84.1478971 168.028133,79.8960341 165.274683,75.9108557 L154.909347,84.4978299 C157.678571,87.1351427 160.190991,90.0304719 162.412631,93.1446649 L172.281651,88.6025722 Z" id="Path" fill="#FFFFFF"></path>
                </g>
                <polygon id="Path" fill="#003FB3" points="894.395633 125.442634 894.395633 179.77916 880.895087 179.77916 880.895087 125.611222"></polygon>
                <path d="M242.203773,120.932304 L242.203773,120.593907 C242.203773,87.9587629 266.678162,59.3831598 302.630027,59.3831598 C338.581893,59.3831598 362.714835,87.6215876 362.714835,120.25551 L362.714835,120.593907 C362.714835,153.229052 338.241666,181.805876 302.2898,181.805876 C266.337935,181.805876 242.203773,153.566227 242.203773,120.932304 Z M348.876501,120.932304 L348.876501,120.593907 C348.876501,93.7078454 329.298209,71.7279278 302.293459,71.7279278 C275.288708,71.7279278 256.044546,93.3706701 256.044546,120.256732 L256.044546,120.595129 C256.044546,147.479969 275.625277,169.461108 302.627589,169.461108 C329.6299,169.461108 348.876501,147.817144 348.876501,120.932304 Z" id="Shape" fill="#003FB3" fill-rule="nonzero"></path>
                <polygon id="Path" fill="#003FB3" points="523.908015 61.4123196 609.314731 61.4123196 609.314731 73.5872784 537.245155 73.5872784 537.245155 113.999443 601.721207 113.999443 601.721207 126.175624 537.242716 126.175624 537.242716 167.601758 610.158591 167.601758 610.158591 179.775495 523.908015 179.775495"></polygon>
                <polygon id="Path" fill="#003FB3" points="661.470666 73.755866 621.805571 73.755866 621.805571 61.4172062 714.638746 61.4172062 714.638746 73.755866 674.972431 73.755866 674.972431 179.775495 661.470666 179.775495"></polygon>
                <path d="M732.867105,61.4123196 L783.669449,61.4123196 C798.18092,61.4123196 809.831559,65.8102577 817.258017,73.2488814 C823.269338,79.5051822 826.548993,87.9004096 826.373416,96.5823866 L826.373416,96.9207835 C826.373416,116.535588 812.870431,128.033753 794.301845,131.4165 L830.591499,179.775495 L814.222803,179.775495 L779.956219,133.784057 L746.201805,133.784057 L746.201805,179.775495 L732.867105,179.775495 L732.867105,61.4123196 Z M782.490239,121.777686 C800.213746,121.777686 812.87287,112.647077 812.87287,97.4289897 L812.87287,97.0905928 C812.87287,82.5529639 801.731963,73.7570876 782.658524,73.7570876 L746.196928,73.7570876 L746.196928,121.777686 L782.490239,121.777686 Z" id="Shape" fill="#003FB3" fill-rule="nonzero"></path>
                <polygon id="Path" fill="#0EDE00" points="880.895087 132.937454 831.776805 61.4123196 847.980875 61.4123196 887.810596 120.593907 965.977429 6.2780567 976.861032 13.0288918 887.914249 142.294067"></polygon>
                <polygon id="Path" fill="#003FB3" points="389.069618 227.887716 379.104262 234.728954 326.925157 165.052175 336.889294 158.21216"></polygon>
                <polygon id="Path" fill="#003FB3" points="483.736848 61.4123196 440.695092 126.005814 397.654556 61.4123196 384.151571 61.4123196 384.151571 181.761897 397.148484 200.76099 397.148484 84.0714742 440.18902 147.311381 440.864596 147.311381 483.905132 83.9016649 483.905132 179.776716 497.238613 179.776716 497.238613 61.4123196"></polygon>
                <polygon id="Path" fill="#003FB3" points="434.23108 214.706119 426.844863 214.706119 426.844863 212.408196 444.130586 212.408196 444.130586 214.706119 436.744369 214.706119 436.744369 234.446753 434.23108 234.446753"></polygon>
                <polygon id="Path" fill="#003FB3" points="448.785232 212.408196 464.685658 212.408196 464.685658 214.674356 451.271693 214.674356 451.271693 222.197273 463.275973 222.197273 463.275973 224.464655 451.271693 224.464655 451.271693 232.178149 464.847845 232.178149 464.847845 234.445531 448.787671 234.445531"></polygon>
                <path d="M468.401327,231.237479 L469.941494,229.412335 C471.932231,231.428912 474.652834,232.552605 477.4838,232.527541 C480.438531,232.527541 482.387214,230.954057 482.387214,228.781964 L482.387214,228.718438 C482.387214,226.672175 481.289708,225.506722 476.666768,224.531845 C471.607264,223.432361 469.281771,221.791686 469.281771,218.171938 L469.281771,218.108412 C469.281771,214.645036 472.330399,212.095454 476.509459,212.095454 C479.331555,212.01471 482.084409,212.978489 484.242,214.802629 L482.795731,216.723062 C481.037714,215.18311 478.782548,214.332969 476.447267,214.329851 C473.586434,214.329851 471.764574,215.904557 471.764574,217.888515 L471.764574,217.95082 C471.764574,220.027624 472.895005,221.194299 477.739885,222.226593 C482.643299,223.297979 484.906601,225.091361 484.906601,228.457005 L484.906601,228.520531 C484.906601,232.297871 481.762855,234.750943 477.394781,234.750943 C474.055643,234.792172 470.831072,233.532432 468.401327,231.237479 L468.401327,231.237479 Z" id="Path" fill="#003FB3"></path>
                <polygon id="Path" fill="#003FB3" points="495.307302 214.706119 487.921085 214.706119 487.921085 212.408196 505.206808 212.408196 505.206808 214.706119 497.820591 214.706119 497.820591 234.446753 495.307302 234.446753"></polygon>
                <polygon id="Path" fill="#003FB3" points="519.292691 212.408196 521.80598 212.408196 529.821434 224.434113 537.834449 212.408196 540.347738 212.408196 540.347738 234.446753 537.866155 234.446753 537.866155 216.594789 529.85192 228.400809 529.729975 228.400809 521.715741 216.626552 521.715741 234.446753 519.292691 234.446753"></polygon>
                <path d="M554.717753,212.250603 L557.043247,212.250603 L567.068357,234.446753 L564.396539,234.446753 L561.819838,228.621928 L549.846045,228.621928 L547.237638,234.446753 L544.691424,234.446753 L554.717753,212.250603 Z M560.845496,226.386309 L555.845746,215.147134 L550.816728,226.386309 L560.845496,226.386309 Z" id="Shape" fill="#003FB3" fill-rule="nonzero"></path>
                <polygon id="Path" fill="#003FB3" points="571.410823 212.408196 573.736317 212.408196 587.596601 230.070804 587.596601 212.408196 590.015993 212.408196 590.015993 234.446753 588.035603 234.446753 573.826556 216.374892 573.826556 234.446753 571.407165 234.446753"></polygon>
                <path d="M604.382349,212.250603 L606.707843,212.250603 L616.732953,234.446753 L614.068451,234.446753 L611.490531,228.621928 L599.516738,228.621928 L596.908332,234.446753 L594.363337,234.446753 L604.382349,212.250603 Z M610.511312,226.386309 L605.511561,215.147134 L600.482544,226.386309 L610.511312,226.386309 Z" id="Shape" fill="#003FB3" fill-rule="nonzero"></path>
                <path d="M618.813337,223.489778 L618.813337,223.426253 C618.722312,220.436575 619.843933,217.537444 621.922369,215.39012 C624.000806,213.242797 626.858808,212.030407 629.844494,212.029485 C632.855363,211.901558 635.797637,212.953168 638.047743,214.961443 L636.444165,216.850113 C634.633769,215.155934 632.226664,214.25005 629.750596,214.331072 C624.872791,214.331072 621.390037,218.456582 621.390037,223.371278 L621.390037,223.434804 C621.390037,228.694005 624.752065,232.597175 630.095701,232.597175 C632.39684,232.59047 634.630328,231.816838 636.444165,230.398206 L636.444165,224.919108 L629.750596,224.919108 L629.750596,222.68349 L638.83185,222.68349 L638.83185,231.467149 C636.398388,233.633502 633.257249,234.832076 630.001803,234.836459 C623.092392,234.824242 618.813337,229.78616 618.813337,223.489778 Z" id="Path" fill="#003FB3"></path>
                <polygon id="Path" fill="#003FB3" points="644.432791 212.408196 660.334436 212.408196 660.334436 214.674356 646.920471 214.674356 646.920471 222.197273 658.92597 222.197273 658.92597 224.464655 646.920471 224.464655 646.920471 232.178149 660.496623 232.178149 660.496623 234.445531 644.432791 234.445531"></polygon>
                <polygon id="Path" fill="#003FB3" points="665.492716 212.408196 668.007224 212.408196 676.021459 224.434113 684.035693 212.408196 686.548983 212.408196 686.548983 234.446753 684.06496 234.446753 684.06496 216.594789 676.050726 228.400809 675.928781 228.400809 667.915766 216.626552 667.915766 234.446753 665.492716 234.446753"></polygon>
                <polygon id="Path" fill="#003FB3" points="692.77794 212.408196 708.680805 212.408196 708.680805 214.674356 695.26684 214.674356 695.26684 222.197273 707.27112 222.197273 707.27112 224.464655 695.26684 224.464655 695.26684 232.178149 708.841773 232.178149 708.841773 234.445531 692.77794 234.445531"></polygon>
                <polygon id="Path" fill="#003FB3" points="713.839085 212.408196 716.164579 212.408196 730.023643 230.070804 730.023643 212.408196 732.444254 212.408196 732.444254 234.446753 730.463865 234.446753 716.258476 216.374892 716.258476 234.446753 713.839085 234.446753"></polygon>
                <polygon id="Path" fill="#003FB3" points="744.486337 214.706119 737.10012 214.706119 737.10012 212.408196 754.385843 212.408196 754.385843 214.706119 746.999626 214.706119 746.999626 234.446753 744.486337 234.446753"></polygon>
                <polygon id="Path" fill="#003FB3" points="768.471726 212.408196 784.279474 212.408196 784.279474 214.706119 770.954529 214.706119 770.954529 222.577206 782.86491 222.577206 782.86491 224.843366 770.954529 224.843366 770.954529 234.446753 768.471726 234.446753"></polygon>
                <path d="M787.645114,223.489778 L787.645114,223.426253 C787.627649,217.219027 792.63635,212.172857 798.832406,212.155269 C805.028463,212.137772 810.065554,217.155502 810.083111,223.362727 L810.083111,223.426253 C810.100575,229.633478 805.091874,234.679649 798.895818,234.697237 C792.699762,234.714733 787.66267,229.697003 787.645114,223.489778 Z M807.507584,223.489778 L807.507584,223.426253 C807.59838,221.057215 806.727126,218.752413 805.092676,217.037902 C803.458227,215.32339 801.200075,214.345493 798.833626,214.327407 C796.479265,214.333411 794.229289,215.301558 792.603972,217.007977 C790.978655,218.714396 790.118744,221.011318 790.22308,223.367613 L790.22308,223.431139 C790.131944,225.80006 791.00292,228.104871 792.637178,229.819423 C794.271435,231.533975 796.529472,232.51191 798.895818,232.529985 C801.250391,232.524313 803.500686,231.556311 805.126269,229.849855 C806.751852,228.143398 807.611928,225.846285 807.507584,223.489778 L807.507584,223.489778 Z" id="Shape" fill="#003FB3" fill-rule="nonzero"></path>
                <path d="M815.3389,212.408196 L824.798185,212.408196 C827.091359,212.283166 829.340495,213.073913 831.052751,214.607165 C832.172154,215.772328 832.782884,217.335748 832.750227,218.952572 L832.750227,219.020985 C832.750227,222.672495 830.235718,224.812825 826.774915,225.443196 L833.531895,234.447974 L830.483267,234.447974 L824.104317,225.884211 L817.818045,225.884211 L817.818045,234.447974 L815.3389,234.447974 L815.3389,212.408196 Z M824.579903,223.647371 C827.879738,223.647371 830.235718,221.946835 830.235718,219.11383 L830.235718,219.050304 C830.235718,216.341907 828.162651,214.706119 824.610389,214.706119 L817.821703,214.706119 L817.821703,223.647371 L824.579903,223.647371 Z" id="Shape" fill="#003FB3" fill-rule="nonzero"></path>
                <g id="Group" transform="translate(846.000000, 211.000000)" fill="#003FB3" fill-rule="nonzero">
                    <path d="M6.80727273,1.20101225 L9.94909091,1.20101225 L9.94909091,16.7623026 C9.94909091,20.8848832 8.10049587,23.7300445 3.76859504,23.7300445 C2.48755773,23.7489604 1.21274392,23.5525439 2.7533531e-12,23.1493993 L2.7533531e-12,20.1687542 C1.03448627,20.5601282 2.13547135,20.7571358 3.24495868,20.7493993 C5.89884298,20.7493993 6.81520661,19.2010122 6.81520661,16.9674639 L6.80727273,1.20101225 Z" id="Path"></path>
                    <path d="M15.6733884,0.00488321419 C16.2403642,-0.034707406 16.7970207,0.167880051 17.1989582,0.560093319 C17.6008958,0.952306588 17.8085061,1.49549558 17.7679339,2.04875418 C17.7679339,3.17755295 16.8301739,4.09262515 15.6733884,4.09262515 C14.5166029,4.09262515 13.578843,3.17755295 13.578843,2.04875418 C13.5382708,1.49549558 13.7458811,0.952306588 14.1478186,0.560093319 C14.5497562,0.167880051 15.1064127,-0.034707406 15.6733884,0.00488321419 L15.6733884,0.00488321419 Z M14.1381818,6.5468187 L17.141157,6.5468187 L17.141157,23.5790768 L14.1381818,23.5790768 L14.1381818,6.5468187 Z" id="Shape"></path>
                    <path d="M21.6753719,6.54294773 L24.6069421,6.54294773 L24.6069421,9.53907676 C25.6185124,7.5300445 27.3838017,6.09778644 30.787438,6.30294773 L30.787438,9.16359289 C26.947438,8.77649612 24.6069421,9.91456063 24.6069421,13.5223026 L24.6069421,23.5868187 L21.6753719,23.5868187 L21.6753719,6.54294773 Z" id="Path"></path>
                    <path d="M44.8542149,20.5093993 C43.7355372,22.7584316 41.6409917,23.915851 38.9553719,23.915851 C34.3140496,23.915851 31.9735537,20.068109 31.9735537,15.0590768 C31.9735537,10.2552058 34.4171901,6.20230257 39.3044628,6.20230257 C41.8512397,6.20230257 43.8069421,7.32488321 44.8581818,9.53907676 L44.8581818,6.54294773 L47.861157,6.54294773 L47.861157,23.5752058 L44.8581818,23.5752058 L44.8542149,20.5093993 Z M39.7566942,21.1906897 C42.446281,21.1906897 44.8542149,19.5223026 44.8542149,15.7403671 L44.8542149,14.3623026 C44.8542149,10.5803671 42.6565289,8.91197999 40.0938843,8.91197999 C36.7061157,8.91197999 34.9606612,11.0913348 34.9606612,15.0435929 C34.9765289,19.1468187 36.6505785,21.1906897 39.7606612,21.1906897 L39.7566942,21.1906897 Z" id="Shape"></path>
                </g>
            </g>
        </g>
    </g>
</svg>
