<svg id="Layer_1" data-name="Layer 1" xmlns="http://www.w3.org/2000/svg" viewBox="0 0 344.255 108.389"><defs><style>.cls-1{fill:#173647;}.cls-2{fill:#17d1fc;}</style></defs><path class="cls-1" d="M135.083,8.2s-4.4-.5-6.215-.5c-2.637,0-3.987.942-3.987,2.793,0,2.009,1.13,2.48,4.8,3.485,4.52,1.255,6.152,2.448,6.152,6.12,0,4.709-2.95,6.749-7.188,6.749A45.733,45.733,0,0,1,121.617,26l.346-2.794s4.237.566,6.466.566c2.667,0,3.891-1.193,3.891-3.453,0-1.821-.973-2.449-4.269-3.233-4.645-1.193-6.654-2.606-6.654-6.34,0-4.333,2.857-6.121,7.157-6.121a47.7,47.7,0,0,1,6.811.752Z"/><path class="cls-1" d="M144.193,5h6.059l4.8,16.793L159.857,5h6.089V26.5h-3.515V7.919h-.185l-5.371,17.7h-3.641l-5.371-17.7h-.185V26.5h-3.485Z"/><path class="cls-1" d="M219.91,5H235.6V8.107h-6.058V26.5h-3.515V8.107H219.91Z"/><path class="cls-1" d="M250.766,5c4.269,0,6.56,1.6,6.56,5.587,0,2.606-.816,3.892-2.542,4.834,1.851.722,3.076,2.04,3.076,4.991,0,4.395-2.668,6.089-6.843,6.089H242.6V5Zm-4.678,3.013v6.153H250.7c2.135,0,3.076-1.067,3.076-3.171,0-2.071-1.067-2.982-3.2-2.982Zm0,9.1v6.372h4.741c2.165,0,3.452-.691,3.452-3.266,0-2.448-1.821-3.106-3.515-3.106Z"/><path class="cls-1" d="M266.5,5h13.56V8.045H269.981v6.089h8.193v2.983h-8.193v6.309h10.076V26.5H266.5Z"/><path class="cls-1" d="M292.551,5h6.937l5.336,21.5h-3.516l-1.587-6.309h-7.4L290.73,26.5h-3.484Zm.463,12.117h6.032l-2.226-9.2h-1.569Z"/><path class="cls-1" d="M316.063,20.129V26.5h-3.484V5h8.162c4.739,0,7.282,2.716,7.282,7.486,0,3.045-1.225,5.792-3.516,6.859l3.548,7.156h-3.83l-3.108-6.372Zm4.678-12.116h-4.678v9.1H320.8c2.636,0,3.64-2.371,3.64-4.6C324.444,10.069,323.252,8.013,320.741,8.013Z"/><path class="cls-1" d="M178.849,5h6.937l5.336,21.5h-3.516l-1.587-6.309h-7.4L177.028,26.5h-3.484Zm.463,12.117h6.032l-2.226-9.2h-1.569Z"/><path class="cls-1" d="M202.361,20.129V26.5h-3.484V5h8.162c4.739,0,7.282,2.716,7.282,7.486,0,3.045-1.225,5.792-3.516,6.859l3.548,7.156h-3.83l-3.108-6.372Zm4.678-12.116h-4.678v9.1H207.1c2.636,0,3.64-2.371,3.64-4.6C210.742,10.069,209.55,8.013,207.039,8.013Z"/><rect class="cls-2" x="2.496" y="2.496" width="89.939" height="89.952"/><path class="cls-1" d="M89.939,4.992v84.96H4.992V4.992H89.939M94.931,0H0V94.943H94.931V0Z"/><path class="cls-1" d="M18.125,50.691s5.009-19.606,27.631-21.776c22.367-2.145,29.318-4.6,34.3-11.768C75.537,30.3,70.281,38.683,41.3,40.744,22.348,42.092,18.125,50.691,18.125,50.691Z"/><path class="cls-1" d="M53.035,62.505c-5.045,2.6-13.209.806-21.465,1.075-12.1.393-12.016,3.851-12.016,3.851S29.827,85.7,53.035,62.505Z"/><path class="cls-1" d="M17.924,61.948S17.112,49.1,36.087,47.614C58.125,45.9,65.464,43.141,68.8,39.308c-2.413,12.2-11.016,19.434-29.154,18.656C19.051,57.079,17.924,61.948,17.924,61.948Z"/><path class="cls-1" d="M153.141,90.161h-33.37V85.745L145.537,46.7H120.568v-5.08H152.41v4.416L126.645,85.048h26.5Z"/><path class="cls-1" d="M177.08,90.825q-8.069,0-12.732-4.914t-4.666-13.647q0-8.8,4.334-13.978a14.391,14.391,0,0,1,11.636-5.18q6.841,0,10.825,4.5t3.984,11.871v3.487H165.393q.166,6.407,3.238,9.728t8.648,3.32A29.309,29.309,0,0,0,188.9,83.553v4.915a29.227,29.227,0,0,1-5.527,1.808A31.09,31.09,0,0,1,177.08,90.825Zm-1.494-33.1a8.995,8.995,0,0,0-6.988,2.856,13.158,13.158,0,0,0-3.073,7.9h19.026q0-5.212-2.324-7.986A8.181,8.181,0,0,0,175.586,57.721Z"/><path class="cls-1" d="M216.791,90.825a15.731,15.731,0,0,1-6.49-1.313,12.2,12.2,0,0,1-4.932-4.033h-.4a48.925,48.925,0,0,1,.4,6.043V106.5h-5.512V53.77h4.483l.764,4.981h.265a12.805,12.805,0,0,1,4.947-4.317,15.042,15.042,0,0,1,6.475-1.328q7.239,0,11.174,4.947T231.9,71.932q0,8.966-4,13.928T216.791,90.825Zm-.8-33.037q-5.578,0-8.068,3.088T205.369,70.7v1.228q0,7.671,2.557,10.973t8.2,3.3a8.535,8.535,0,0,0,7.389-3.819q2.672-3.819,2.672-10.525,0-6.807-2.672-10.443A8.794,8.794,0,0,0,215.994,57.788Z"/><path class="cls-1" d="M266.43,90.161V66.62q0-4.451-2.026-6.641t-6.341-2.191q-5.746,0-8.383,3.121t-2.641,10.226V90.161h-5.512V38.5h5.512V54.135a33.937,33.937,0,0,1-.266,4.682h.332a11.242,11.242,0,0,1,4.633-4.135,15.063,15.063,0,0,1,6.856-1.509q6.674,0,10.011,3.17t3.336,10.078v23.74Z"/><path class="cls-1" d="M277.486,53.77h5.91l7.969,20.752a78.9,78.9,0,0,1,3.254,10.26h.266q.431-1.693,1.81-5.8t9.014-25.217h5.91L295.98,95.208q-2.322,6.139-5.427,8.715a11.555,11.555,0,0,1-7.621,2.574,22.263,22.263,0,0,1-4.981-.565v-4.416a19.178,19.178,0,0,0,4.084.4q5.677,0,8.1-6.375l2.025-5.18Z"/><path class="cls-1" d="M334.131,53.106a21.531,21.531,0,0,1,4.349.4l-.763,5.113a18.788,18.788,0,0,0-3.985-.5,9.7,9.7,0,0,0-7.552,3.586,13.072,13.072,0,0,0-3.139,8.931V90.161h-5.512V53.77h4.549l.631,6.74h.266a15.964,15.964,0,0,1,4.88-5.478A10.994,10.994,0,0,1,334.131,53.106Z"/></svg>
